<?xml version="1.0" encoding="UTF-8" standalone="no"?>
<!-- Generator: Gravit.io -->
<svg xmlns="http://www.w3.org/2000/svg" xmlns:xlink="http://www.w3.org/1999/xlink" style="isolation:isolate" viewBox="0 0 175 120" width="175pt" height="120pt"><defs><clipPath id="_clipPath_WklYIjMQuKiMROzxMwrCU6MYCSa6z8WJ"><rect width="175" height="120"/></clipPath></defs><g clip-path="url(#_clipPath_WklYIjMQuKiMROzxMwrCU6MYCSa6z8WJ)"><clipPath id="_clipPath_AlbsPncSKnun4vGH2jcldtK3IJI6JUyP"><rect x="0" y="0" width="175" height="120" transform="matrix(1,0,0,1,0,0)" fill="rgb(255,255,255)"/></clipPath><g clip-path="url(#_clipPath_AlbsPncSKnun4vGH2jcldtK3IJI6JUyP)"><g><path d=" M 4.989 0.724 L 12.864 7.361 L 20.418 7.361 C 21.193 7.357 21.938 7.612 22.489 8.071 L 32.084 16.152 C 39.23 10.128 39.23 9.809 40.834 9.809 L 137.084 9.809 C 137.859 9.806 138.604 10.061 139.154 10.52 C 149.334 19.066 147.759 17.695 148.167 18.209 C 148.575 18.723 149.917 20.658 162.138 39.195 L 172.083 39.195 C 173.694 39.195 175 40.291 175 41.644 L 175 63.683 C 175 65.035 173.694 66.132 172.083 66.132 L 167.096 66.132 L 131.484 85.354 L 145.659 116.699 C 146.058 117.603 145.789 118.62 144.971 119.296 C 144.152 119.973 142.937 120.183 141.867 119.833 L 51.451 90.448 L 34.68 118.584 C 34.148 119.451 33.055 119.97 31.897 119.906 C 30.738 119.842 29.735 119.208 29.343 118.291 C 7.293 65.838 15.693 87.289 0.643 46.149 C 0.012 44.416 0.573 42.532 2.101 41.252 L 15.722 29.792 L 12.805 26.584 L 2.218 24.502 C 0.884 24.226 -0.039 23.206 0.001 22.053 L 0.001 2.463 C -0.006 1.468 0.705 0.569 1.799 0.187 C 2.894 -0.194 4.154 0.018 4.989 0.724 Z  M 21.701 14.34 L 17.822 24.135 L 19.893 26.461 L 27.972 19.605 L 21.701 14.34 L 21.701 14.34 Z  M 135.888 14.707 L 101.413 14.707 L 91.38 46.272 L 120.925 44.092 L 142.013 19.849 L 135.888 14.707 L 135.888 14.707 Z  M 168.583 61.234 L 169.167 61.234 L 169.167 44.092 L 164.063 44.092 L 168.583 61.234 L 168.583 61.234 Z  M 162.954 62.556 L 157.675 42.525 L 145.513 24.159 L 125.65 47.08 C 124.65 48.225 123.107 48.948 121.421 49.063 L 115.296 49.504 L 129.384 80.677 L 162.954 62.556 L 162.954 62.556 Z  M 32.551 111.312 L 45.997 88.734 L 19.455 80.139 L 32.551 111.312 L 32.551 111.312 Z  M 6.301 44.778 L 17.034 74.164 L 137.959 113.344 L 109.317 49.97 L 91.963 51.194 C 90.07 51.328 88.218 50.68 86.999 49.456 C 85.78 48.233 85.347 46.588 85.838 45.047 L 95.376 14.707 L 42.03 14.707 L 6.301 44.778 L 6.301 44.778 Z  M 5.835 20.143 L 12.659 21.588 L 16.364 12.258 C 11.085 12.258 10.53 12.43 9.597 11.548 L 5.835 8.365 L 5.835 20.143 L 5.835 20.143 Z " fill="rgb(232,232,232)"/></g></g></g></svg>